<?xml version="1.0" encoding="utf-8"?>
<!-- Svg Vector Icons : http://www.onlinewebfonts.com/icon -->
<!DOCTYPE svg PUBLIC "-//W3C//DTD SVG 1.1//EN" "http://www.w3.org/Graphics/SVG/1.1/DTD/svg11.dtd">
<svg version="1.1" xmlns="http://www.w3.org/2000/svg" xmlns:xlink="http://www.w3.org/1999/xlink" x="0px" y="0px" viewBox="0 0 1000 1000" enable-background="new 0 0 1000 1000" xml:space="preserve">
<metadata> Svg Vector Icons : http://www.onlinewebfonts.com/icon </metadata>
<g><g transform="translate(0.000000,512.000000) scale(0.100000,-0.100000)"><path d="M4623.5,5003.7C3145,4896.3,1760.4,4087.1,930,2838.7C437.2,2098.4,174.5,1321.8,111.2,420.5C15.3-967.9,538.8-2344.8,1539.9-3347.8c767.1-765.2,1685.6-1225.4,2782.6-1390.3c379.7-57.5,981.9-57.5,1361.5,0c1096.9,164.9,2015.5,625.2,2780.6,1392.2c767.1,765.2,1227.3,1683.7,1392.2,2780.6c57.5,379.7,57.5,981.9,0,1361.6c-164.9,1096.9-625.2,2015.5-1390.3,2782.6C7617,4426.5,6537.3,4919.4,5338.8,5005.7C5039.6,5026.8,4938,5026.8,4623.5,5003.7z M2859.2,3220.3c295.3-99.7,492.8-349,525.4-667.3c23-210.9-86.3-485.2-251.2-629c-42.2-38.3-132.3-94-201.4-128.5c-111.2-51.8-143.8-59.5-297.2-59.5c-201.4,0-324.1,38.4-464.1,143.8c-281.9,210.9-383.5,573.4-255,907.1c76.7,203.3,308.7,404.6,523.5,454.5C2558.2,3270.2,2738.4,3262.5,2859.2,3220.3z M7128,1225.9c222.4-55.6,395-157.2,571.5-333.7C7950.7,641,8090.7,313.1,8129-122.2c9.6-117,19.2-818.8,19.2-1559.1v-1348.1h-659.7h-659.7l1.9,1261.8c3.8,1175.5,1.9,1267.6-30.7,1375c-72.9,234-176.4,364.4-356.7,448.8c-93.9,44.1-132.3,49.9-308.7,49.9c-182.2,0-212.9-5.8-310.6-53.7C5605.4-55.1,5446.2-291,5405.9-565.2c-9.6-76.7-19.2-627.1-19.2-1298.3v-1165.9h-652h-652v2099.9v2099.9H4706h623.2v-280v-280l86.3,115.1c147.7,197.5,429.6,395,703.8,494.8C6307.2,1289.2,6863.3,1293,7128,1225.9z M3277.3-939.2v-2090.3h-652h-652v2090.3v2090.3h652h652V-939.2z"/></g></g>
</svg>